<svg xmlns="http://www.w3.org/2000/svg" viewBox="0 0 300 110" aria-hidden="true">
  <defs>
    <linearGradient id="gold" x1="0" y1="0" x2="1" y2="1">
      <stop offset="0" stop-color="#8a5b17"/>
      <stop offset="0.22" stop-color="#f5d47d"/>
      <stop offset="0.48" stop-color="#b97a20"/>
      <stop offset="0.74" stop-color="#ffe7a7"/>
      <stop offset="1" stop-color="#936319"/>
    </linearGradient>
  </defs>
  <g fill="none" stroke="url(#gold)" stroke-linecap="round" stroke-linejoin="round" opacity=".85">
    <path d="M28 58c19-18 38-20 55-7 8 7 16 9 23 5M272 58c-19-18-38-20-55-7-8 7-16 9-23 5" stroke-width="2.2"/>
    <path d="M58 71c17 12 34 12 51 1M242 71c-17 12-34 12-51 1" stroke-width="1.6" opacity=".86"/>
    <path d="M94 45c-10-12-22-12-31-4M206 45c10-12 22-12 31-4" stroke-width="1.5" opacity=".9"/>
  </g>
  <g fill="url(#gold)" opacity=".95">
    <circle cx="76" cy="24" r="1.6"/>
    <circle cx="224" cy="24" r="1.6"/>
    <circle cx="62" cy="40" r="1.1"/>
    <circle cx="238" cy="40" r="1.1"/>
    <path d="M96 20l1.6 4.4 4.4 1.6-4.4 1.6-1.6 4.4-1.6-4.4-4.4-1.6 4.4-1.6z"/>
    <path d="M204 20l1.6 4.4 4.4 1.6-4.4 1.6-1.6 4.4-1.6-4.4-4.4-1.6 4.4-1.6z"/>
  </g>
  <path d="M150 12a19 19 0 1 0 15 30.5A23 23 0 0 1 150 12z" fill="url(#gold)" opacity=".95"/>
  <g fill="url(#gold)" opacity=".95">
    <circle cx="178" cy="16" r="1.4"/>
    <circle cx="186" cy="24" r="1"/>
    <circle cx="182" cy="34" r="1.2"/>
  </g>
  <path d="M150 62c-2.4 9-8 14-15 17 7 0 12 4.5 15 12 3-7.5 8-12 15-12-7-3-12.6-8-15-17z" fill="url(#gold)" stroke-width="1.2"/>
</svg>
