<svg xmlns="http://www.w3.org/2000/svg" viewBox="0 0 512 512"><defs><linearGradient id="bg" x1="0" y1="0" x2="1" y2="1"><stop stop-color="#f8efe3"/><stop offset="1" stop-color="#bea085"/></linearGradient><linearGradient id="metal" x1="0" y1="0" x2="0" y2="1"><stop stop-color="#d9d6cf"/><stop offset=".5" stop-color="#9b9790"/><stop offset="1" stop-color="#5f5a55"/></linearGradient><linearGradient id="leather" x1="0" y1="0" x2="1" y2="1"><stop stop-color="#8a593d"/><stop offset="1" stop-color="#5b3828"/></linearGradient><radialGradient id="glass" cx="38%" cy="34%"><stop stop-color="#86a6ae"/><stop offset=".2" stop-color="#394a50"/><stop offset=".55" stop-color="#151c20"/><stop offset="1" stop-color="#050606"/></radialGradient><filter id="shadow"><feDropShadow dx="0" dy="15" stdDeviation="12" flood-opacity=".28"/></filter></defs><rect width="512" height="512" rx="104" fill="url(#bg)"/><ellipse cx="256" cy="422" rx="154" ry="22" fill="#37251d" opacity=".18"/><g filter="url(#shadow)"><path d="M142 143h228l-26 92H168z" fill="url(#metal)" stroke="#4e4944" stroke-width="4"/><path d="M169 235h174l43 164H126z" fill="#171412" stroke="#080706" stroke-width="5"/><path d="M150 365h212l14 34H136z" fill="url(#leather)" stroke="#392419" stroke-width="3"/><path d="M176 235h160l-14 44H190z" fill="url(#leather)" opacity=".92"/><circle cx="256" cy="225" r="64" fill="#10100f" stroke="#8e8981" stroke-width="12"/><circle cx="256" cy="225" r="47" fill="#282927" stroke="#5c5751" stroke-width="6"/><circle cx="256" cy="225" r="31" fill="url(#glass)"/><circle cx="245" cy="215" r="8" fill="#e6fbff" opacity=".15"/><rect x="193" y="163" width="36" height="22" rx="3" fill="#211e1b"/><rect x="283" y="161" width="41" height="24" rx="4" fill="#211e1b"/><rect x="201" y="303" width="112" height="15" rx="2" fill="#bcb5aa"/><rect x="213" y="323" width="88" height="8" rx="2" fill="#746a61"/><g transform="translate(176 257)"><rect x="0" width="11" height="50" rx="2" fill="#ba3b32"/><rect x="13" width="11" height="50" rx="2" fill="#d98432"/><rect x="26" width="11" height="50" rx="2" fill="#d5b23b"/><rect x="39" width="11" height="50" rx="2" fill="#5b8b62"/><rect x="52" width="11" height="50" rx="2" fill="#4c7190"/></g><rect x="302" y="278" width="31" height="35" rx="4" fill="#2a2724" stroke="#5d554e" stroke-width="3"/><path d="M141 399h229l-13 17H154z" fill="#2b211c"/></g></svg>